<?xml version="1.0" encoding="UTF-8" standalone="no"?>
<svg xmlns="http://www.w3.org/2000/svg" height="18" width="18" version="1.1" viewBox="0 0 18 18">
 <title>btn_google_light_normal_ios</title>
 <desc>Created with Sketch.</desc>
 <g id="Google-Button" fill="none" transform="translate(7.7782 -21.282)">
  <g id="logo_googleg_48dp" transform="translate(6.3986 5.8683)">
   <g transform="translate(-.17678 -.58579)">
    <path id="Shape" fill="#4285f4" d="m3.64 25.205c0-0.63818-0.05727-1.2518-0.16364-1.8409h-8.4764v3.481h4.8436c-0.2086 1.125-0.84269 2.078-1.7959 2.716v2.2582h2.9087c1.7018-1.566 2.6836-3.874 2.6836-6.614z"/>
    <path fill="#34a853" d="m-5 34c2.43 0 4.4673-0.80591 5.9564-2.1805l-2.9086-2.2582c-0.80591 0.54-1.8368 0.85909-3.0477 0.85909-2.3441 0-4.3282-1.5832-5.0359-3.7105h-3.0068v2.3318c1.481 2.94 4.5248 4.957 8.043 4.957z"/>
    <path fill="#fbbc05" d="m-10.036 26.71c-0.18-0.54-0.28227-1.1168-0.28227-1.71 0-0.59318 0.10227-1.17 0.28227-1.71v-2.3318h-3.0068c-0.609 1.215-0.957 2.59-0.957 4.042 0 1.4523 0.34773 2.8268 0.95727 4.0418z"/>
    <path fill="#ea4335" d="m-5 19.58c1.3214 0 2.5077 0.45409 3.4405 1.3459l2.5813-2.582c-1.5586-1.452-3.5959-2.344-6.0218-2.344-3.5182 0-6.5618 2.0168-8.0427 4.9582l3.007 2.332c0.7078-2.127 2.6919-3.71 5.036-3.71z"/>
    <path d="m-14 16h18v18h-18z"/>
   </g>
  </g>
 </g>
</svg>
