<svg version="1" xmlns="http://www.w3.org/2000/svg" width="933.333" height="933.333" viewBox="0 0 700.000000 700.000000"><path d="M66.6 23.2c-5.7.8-8.5 2.5-12.3 7.5l-2.8 3.6v638.3l2.7 4.1c1.6 2.5 4.4 4.9 7.1 6.2l4.5 2.2 162.3-.6c188-.7 263.8-1.2 265.9-1.7 3.9-.9 9.4-6.1 44.6-42.3 10.3-10.7 48.6-49.8 91.6-93.7 8.2-8.4 16.2-17.1 17.6-19.2l2.7-4V34.5l-2.2-3.5c-2.3-3.8-6.7-6.8-11.1-7.7-3.9-.8-565-.9-570.6-.1zm549.9 256.2c0 122.3-.3 222.7-.7 223.1-.4.4-19 .6-41.5.5-71.5-.3-87.7-.3-90.5.1-3.9.5-8.7 4.8-10.2 9.3-1 2.8-1.3 8.9-1 22.5.1 10.2.5 40.1.9 66.3l.6 47.8-11.3.1c-6.2 0-67.3.2-135.8.5-68.5.3-150.5.6-182.3.7-38.9.2-58.1-.1-58.5-.8-.7-1.1-1.1-589.1-.4-591.3.3-.9 54.3-1.2 265.6-1.2h265.2l-.1 222.4zm-21.9 253.9c.1.1-8.2 8.8-18.4 19.3-10.3 10.6-30.6 31.4-45.1 46.3-14.6 14.9-26.7 27.1-27.1 27.1-.3 0-.7-13.6-.9-30.3-.1-16.6-.4-37.4-.6-46.2-.1-8.8-.1-16.3.1-16.6.3-.5 91.5-.1 92 .4z"/><path d="M143.5 93.8c-1.9.3-2 1-1.9 27.5.1 15 .5 84.3.8 154.1.3 69.8.7 127.1 1 127.3.3.4 12.1.7 61.3 1.8l27.3.6.2-75.1.3-75.1 4.9 5.8c2.6 3.2 7.9 9.2 11.6 13.3 3.7 4.1 8 9.1 9.6 11 1.6 1.9 3.1 3.7 3.4 4 .3.3 8.2 9.3 17.5 20s17.2 19.7 17.5 20c.6.6 11.4 13.1 15.1 17.4 1.3 1.6 3.5 4.1 4.9 5.6 1.4 1.5 4.8 5.4 7.6 8.6 2.8 3.3 12.9 14.9 22.6 25.9l17.5 20h84.8V250.7c0-137.7-.2-156-1.5-156.6-1.1-.5-72.4-.7-83.5-.2-2 .1-2 .8-2 77.2v77.1l-3.4-3.9c-1.9-2.1-5-5.6-7-7.8s-7.9-8.9-13.1-15c-5.2-6-11.1-12.7-13-14.9-1.9-2.1-3.9-4.4-4.5-5-.5-.6-3.7-4.3-7-8.1-3.3-3.9-6.2-7.2-6.5-7.5-.3-.3-10-11.3-21.5-24.5-11.6-13.2-22.2-25.4-23.6-27-1.5-1.7-10.1-11.5-19.2-21.9l-16.5-18.9-40.8-.1c-22.5-.1-41.8 0-42.9.2z"/></svg>