<svg version="1" xmlns="http://www.w3.org/2000/svg" width="682.667" height="682.667" viewBox="0 0 512.000000 512.000000"><path d="M44.6 18c-1.6.8-3.9 2.8-5 4.3l-2.1 2.8-.1 232.7c-.1 218.9 0 232.9 1.7 236.2.9 1.9 3.1 4.3 4.8 5.3 2.9 1.7 10.3 1.8 159.6 1.2 86.1-.3 157.5-.9 158.8-1.4 2.9-1.1-3.5 5.4 96.1-96.6 8.1-8.3 15.4-16.3 16.3-17.9 1.4-2.6 1.5-20.9 1.5-180.1 0-97.5-.3-178.2-.7-179.5-1.1-3.6-4.5-6.8-7.9-7.6-1.7-.4-96.9-.8-211.6-.8-183.5-.1-208.9.1-211.4 1.4zm403.7 23.9l2.7.1v326.1l-48.8-.3c-45.2-.3-49-.2-51.5 1.5-4.9 3.2-5.4 5.6-5.1 25.2.2 9.9.5 32.1.7 49.2l.5 31.3-59.7.1c-32.8 0-96.6.1-141.8.3-59.5.2-82.3 0-82.4-.8-.1-.6-.2-98.1-.3-216.6l-.1-215.5 3-.5c2.2-.4 367.4-.4 382.8-.1zm-13.8 348.3c.3.3-19.1 20.4-50.2 52-8.6 8.7-15.6 15.8-15.7 15.8-.1 0-.3-8.4-.5-18.8-.2-10.3-.4-25.5-.5-33.7-.2-8.3-.2-15.3 0-15.6.3-.5 66.3-.3 66.9.3z"/><path d="M104.3 68.7c-.5.2-.7 23.4-.6 51.6.2 28.1.4 78.7.6 112.4.2 33.7.5 61.4.7 61.7.5.5 59.8 2.1 63.6 1.7.8-.1 1.1-15.5 1.2-53.9 0-29.5.1-54.2.2-54.7 0-.6 1 .1 2.1 1.5 1.2 1.4 4.7 5.4 7.9 9 3.1 3.6 7.5 8.5 9.6 11 2.2 2.5 4.9 5.6 6.1 7 1.2 1.4 3 3.4 4 4.6 1 1.2 4.3 4.9 7.3 8.4s6.3 7.2 7.3 8.4c1 1.2 4.2 4.8 7 8 2.9 3.3 8.6 9.8 12.7 14.5 4.1 4.7 8.6 9.9 10 11.5 1.4 1.6 3 3.4 3.5 4 .6.6 5 5.7 9.9 11.3 4.8 5.6 9.3 10.3 10 10.5.9.3 58.6.2 60.9-.1.4-.1.7-51.3.7-114 0-107.6-.1-113.9-1.7-114.3-1-.2-15.3-.4-31.8-.3h-30l-.5 56.2-.5 56.3-10.4-12.1c-5.8-6.6-11.4-13.1-12.5-14.3-2.6-2.9-6.3-7.1-14.6-16.6-3.6-4.1-6.7-7.7-7-8-.3-.3-7-7.9-14.9-17s-17.2-19.7-20.6-23.5c-3.4-3.9-7.5-8.6-9.1-10.5-1.6-1.9-4.3-5-6.1-6.9l-3.2-3.6h-30.5c-16.8 0-30.9.1-31.3.2z"/></svg>